<svg xmlns="http://www.w3.org/2000/svg" xmlns:xlink="http://www.w3.org/1999/xlink" width="500" zoomAndPan="magnify" viewBox="0 0 375 374.999991" height="500" preserveAspectRatio="xMidYMid meet" version="1.0"><defs><g/><clipPath id="fc934d7df8"><path d="M 187.5 0 C 83.945312 0 0 83.945312 0 187.5 C 0 291.054688 83.945312 375 187.5 375 C 291.054688 375 375 291.054688 375 187.5 C 375 83.945312 291.054688 0 187.5 0 Z M 187.5 0 " clip-rule="nonzero"/></clipPath><clipPath id="bdc19ddd43"><path d="M 0 0 L 375 0 L 375 375 L 0 375 Z M 0 0 " clip-rule="nonzero"/></clipPath><clipPath id="d409ce6bb2"><path d="M 187.5 0 C 83.945312 0 0 83.945312 0 187.5 C 0 291.054688 83.945312 375 187.5 375 C 291.054688 375 375 291.054688 375 187.5 C 375 83.945312 291.054688 0 187.5 0 Z M 187.5 0 " clip-rule="nonzero"/></clipPath><clipPath id="df877f102e"><rect x="0" width="375" y="0" height="375"/></clipPath><clipPath id="c4c39e2e27"><rect x="0" width="220" y="0" height="271"/></clipPath></defs><g clip-path="url(#fc934d7df8)"><g transform="matrix(1, 0, 0, 1, 0, 0)"><g clip-path="url(#df877f102e)"><g clip-path="url(#bdc19ddd43)"><g clip-path="url(#d409ce6bb2)"><rect x="-82.5" width="540" fill="#000000" height="539.999987" y="-82.499998" fill-opacity="1"/></g></g></g></g></g><g transform="matrix(1, 0, 0, 1, 77, 78)"><g clip-path="url(#c4c39e2e27)"><g fill="#ffffff" fill-opacity="1"><g transform="translate(0.62445, 202.444221)"><g><path d="M 26.609375 -188.140625 L 57.25 -24.453125 L 87.625 -188.140625 L 106.96875 -188.140625 L 71.765625 0 L 40.859375 0 L 5.375 -188.140625 Z M 26.609375 -188.140625 "/></g></g></g><g fill="#ffffff" fill-opacity="1"><g transform="translate(112.971503, 202.444221)"><g><path d="M 52.6875 -188.140625 C 67.550781 -188.140625 78.253906 -184.46875 84.796875 -177.125 C 91.335938 -169.78125 94.609375 -159.117188 94.609375 -145.140625 L 94.609375 -129.828125 C 94.609375 -119.429688 92.726562 -111.003906 88.96875 -104.546875 C 85.207031 -98.097656 79.296875 -93.617188 71.234375 -91.109375 C 79.828125 -88.609375 85.914062 -83.992188 89.5 -77.265625 C 93.082031 -70.546875 94.875 -62.082031 94.875 -51.875 L 94.875 -22.578125 C 94.875 -18.453125 95.050781 -14.460938 95.40625 -10.609375 C 95.769531 -6.765625 96.847656 -3.226562 98.640625 0 L 77.40625 0 C 76.15625 -2.6875 75.257812 -5.597656 74.71875 -8.734375 C 74.1875 -11.867188 73.921875 -16.570312 73.921875 -22.84375 L 73.921875 -52.40625 C 73.921875 -62.976562 71.546875 -70.28125 66.796875 -74.3125 C 62.046875 -78.34375 55.28125 -80.359375 46.5 -80.359375 L 31.71875 -80.359375 L 31.71875 0 L 10.75 0 L 10.75 -188.140625 Z M 47.3125 -99.453125 C 55.726562 -99.453125 62.265625 -101.195312 66.921875 -104.6875 C 71.585938 -108.1875 73.921875 -115.039062 73.921875 -125.25 L 73.921875 -143.265625 C 73.921875 -151.859375 72.257812 -158.304688 68.9375 -162.609375 C 65.625 -166.910156 60.023438 -169.0625 52.140625 -169.0625 L 31.71875 -169.0625 L 31.71875 -99.453125 Z M 47.3125 -99.453125 "/></g></g></g></g></g></svg>